<svg width="30" height="30" viewBox="0 0 30 30" fill="none" xmlns="http://www.w3.org/2000/svg">
<path d="M7.5 25.0098V1.98926H28.75V25.0098C28.75 25.9946 28.4208 26.939 27.8347 27.6353C27.2487 28.3316 26.4538 28.7228 25.625 28.7228H4.375M20 7.93005H23.75V13.8708H20V7.93005ZM11.25 19.8116H25H11.25ZM11.25 13.8708H16.25H11.25ZM11.25 7.93005H16.25H11.25ZM7.5 25.0098C7.5 25.9946 7.17076 26.939 6.58471 27.6353C5.99866 28.3316 5.2038 28.7228 4.375 28.7228C3.5462 28.7228 2.75134 28.3316 2.16529 27.6353C1.57924 26.939 1.25 25.9946 1.25 25.0098V7.93005H7.53125L7.5 25.0098Z" stroke="#262626" stroke-width="2"/>
</svg>
