<svg width="33" height="40" viewBox="0 0 33 40" fill="none" xmlns="http://www.w3.org/2000/svg">
<path d="M9.2002 5.6V27.2C9.2002 28.1548 9.57948 29.0705 10.2546 29.7456C10.9297 30.4207 11.8454 30.8 12.8002 30.8H27.2002C28.155 30.8 29.0706 30.4207 29.7458 29.7456C30.4209 29.0705 30.8002 28.1548 30.8002 27.2V11.4356C30.8001 10.956 30.7043 10.4813 30.5182 10.0392C30.3321 9.59722 30.0596 9.19683 29.7166 8.8616L23.7496 3.026C23.077 2.36838 22.1738 2.00012 21.2332 2H12.8002C11.8454 2 10.9297 2.37928 10.2546 3.05442C9.57948 3.72955 9.2002 4.64522 9.2002 5.6V5.6Z" stroke="#424874" stroke-width="3.2" stroke-linecap="round" stroke-linejoin="round"/>
<path d="M23.6 30.8V34.4C23.6 35.3548 23.2207 36.2705 22.5456 36.9456C21.8705 37.6207 20.9548 38 20 38H5.6C4.64522 38 3.72955 37.6207 3.05442 36.9456C2.37928 36.2705 2 35.3548 2 34.4V14.6C2 13.6452 2.37928 12.7295 3.05442 12.0544C3.72955 11.3793 4.64522 11 5.6 11H9.2" stroke="#424874" stroke-width="3.2" stroke-linecap="round" stroke-linejoin="round"/>
</svg>
