<svg width="24" height="24" viewBox="0 0 24 24" fill="none" xmlns="http://www.w3.org/2000/svg">
<path d="M3.33301 5.5H20.6663L18.9547 20.905C18.896 21.4352 18.6438 21.925 18.2464 22.2808C17.8491 22.6367 17.3344 22.8334 16.801 22.8333H7.19834C6.66495 22.8334 6.15028 22.6367 5.7529 22.2808C5.35552 21.925 5.10335 21.4352 5.04467 20.905L3.33301 5.5Z" stroke="#5A5A5A" stroke-width="2" stroke-linecap="round" stroke-linejoin="round"/>
<path d="M6.95708 2.40909C7.13232 2.03747 7.4096 1.72333 7.75659 1.50332C8.10358 1.28331 8.50597 1.1665 8.91683 1.1665H15.0832C15.4942 1.16629 15.8968 1.28301 16.244 1.50303C16.5912 1.72306 16.8687 2.0373 17.044 2.40909L18.5 5.49984H5.5L6.95708 2.40909Z" stroke="#5A5A5A" stroke-width="2" stroke-linecap="round" stroke-linejoin="round"/>
<path d="M1.1665 5.5H22.8332" stroke="#5A5A5A" stroke-width="2" stroke-linecap="round" stroke-linejoin="round"/>
<path d="M9.83301 10.9165V16.3332" stroke="#5A5A5A" stroke-width="2" stroke-linecap="round" stroke-linejoin="round"/>
<path d="M14.1665 10.9165V16.3332" stroke="#5A5A5A" stroke-width="2" stroke-linecap="round" stroke-linejoin="round"/>
</svg>
