<svg width="724" height="84" viewBox="0 0 724 84" fill="none" xmlns="http://www.w3.org/2000/svg">
<path d="M87.36 -5.72205e-06C89.2 -5.72205e-06 90.12 0.879995 90.12 2.64V14.04C90.12 15.8 89.2 16.68 87.36 16.68H34.92C31.8 16.68 29.2 16.96 27.12 17.52C25.12 18 23.48 18.88 22.2 20.16C21 21.36 20.16 23.04 19.68 25.2C19.2 27.28 18.96 29.88 18.96 33V34.2H86.76C88.52 34.2 89.4 35.08 89.4 36.84V46.32C89.4 48.08 88.52 48.96 86.76 48.96H18.96V51C18.96 54.12 19.2 56.76 19.68 58.92C20.16 61 21 62.68 22.2 63.96C23.48 65.16 25.12 66.04 27.12 66.6C29.2 67.08 31.8 67.32 34.92 67.32H87.36C89.2 67.32 90.12 68.2 90.12 69.96V81.36C90.12 83.12 89.2 84 87.36 84H34.56C28.48 84 23.32 83.44 19.08 82.32C14.84 81.2 11.36 79.4 8.64 76.92C6 74.36 4.04 71.08 2.76 67.08C1.56 63 0.96 58.08 0.96 52.32V31.68C0.96 25.92 1.56 21.04 2.76 17.04C4.04 13.04 6 9.79999 8.64 7.31999C11.36 4.76 14.84 2.92 19.08 1.79999C23.32 0.599994 28.48 -5.72205e-06 34.56 -5.72205e-06H87.36ZM163.633 -5.72205e-06C170.113 -5.72205e-06 175.673 0.679995 180.313 2.04C184.953 3.31999 188.753 5.35999 191.713 8.16C194.673 10.88 196.833 14.4 198.193 18.72C199.633 22.96 200.353 28 200.353 33.84V50.16C200.353 56 199.633 61.08 198.193 65.4C196.833 69.64 194.673 73.16 191.713 75.96C188.753 78.68 184.953 80.72 180.313 82.08C175.673 83.36 170.113 84 163.633 84H107.473C105.073 84 103.873 82.8 103.873 80.4V3.6C103.873 1.2 105.073 -5.72205e-06 107.473 -5.72205e-06H163.633ZM122.233 65.76C122.233 66.8 122.753 67.32 123.793 67.32H163.153C166.673 67.32 169.633 67 172.033 66.36C174.433 65.72 176.353 64.68 177.793 63.24C179.313 61.8 180.393 59.88 181.033 57.48C181.673 55.08 181.993 52.12 181.993 48.6V35.4C181.993 31.88 181.673 28.92 181.033 26.52C180.393 24.12 179.313 22.2 177.793 20.76C176.353 19.32 174.433 18.28 172.033 17.64C169.633 17 166.673 16.68 163.153 16.68H123.793C122.753 16.68 122.233 17.24 122.233 18.36V65.76ZM230.798 -5.72205e-06C232.558 -5.72205e-06 233.438 0.879995 233.438 2.64V50.52C233.438 53.72 233.678 56.4 234.158 58.56C234.718 60.64 235.598 62.32 236.798 63.6C237.998 64.8 239.598 65.68 241.598 66.24C243.678 66.72 246.278 66.96 249.398 66.96H282.638C285.758 66.96 288.318 66.72 290.318 66.24C292.398 65.68 294.038 64.8 295.238 63.6C296.438 62.32 297.278 60.64 297.758 58.56C298.238 56.4 298.478 53.72 298.478 50.52V2.64C298.478 0.879995 299.358 -5.72205e-06 301.118 -5.72205e-06H314.198C315.958 -5.72205e-06 316.838 0.879995 316.838 2.64V52.32C316.838 58.08 316.238 63 315.038 67.08C313.838 71.08 311.878 74.36 309.158 76.92C306.518 79.4 303.038 81.2 298.718 82.32C294.478 83.44 289.318 84 283.238 84H248.678C242.598 84 237.438 83.44 233.198 82.32C228.958 81.2 225.478 79.4 222.758 76.92C220.118 74.36 218.158 71.08 216.878 67.08C215.678 63 215.078 58.08 215.078 52.32V2.64C215.078 0.879995 215.998 -5.72205e-06 217.838 -5.72205e-06H230.798ZM356.266 -5.72205e-06C358.026 -5.72205e-06 359.546 0.119995 360.826 0.359997C362.106 0.599998 363.226 1.08 364.186 1.79999C365.146 2.43999 365.986 3.35999 366.706 4.55999C367.506 5.68 368.306 7.2 369.106 9.12L394.066 66.72C394.386 67.44 394.946 67.8 395.746 67.8H397.186C397.986 67.8 398.546 67.44 398.866 66.72L423.826 9.12C424.626 7.2 425.386 5.68 426.106 4.55999C426.906 3.35999 427.786 2.43999 428.746 1.79999C429.706 1.08 430.786 0.599998 431.986 0.359997C433.266 0.119995 434.786 -5.72205e-06 436.546 -5.72205e-06H449.386C453.546 -5.72205e-06 456.346 0.959994 457.786 2.87999C459.226 4.71999 459.946 7.91999 459.946 12.48V81.36C459.946 83.12 459.026 84 457.186 84H444.946C443.186 84 442.306 83.12 442.306 81.36V18.72C442.306 17.92 441.986 17.52 441.346 17.52H440.266C439.466 17.52 438.946 17.84 438.706 18.48L414.466 72.24C413.506 74.4 412.506 76.24 411.466 77.76C410.506 79.2 409.426 80.4 408.226 81.36C407.106 82.32 405.786 83 404.266 83.4C402.826 83.8 401.106 84 399.106 84H393.346C391.346 84 389.586 83.8 388.066 83.4C386.626 83 385.306 82.32 384.106 81.36C382.986 80.4 381.906 79.2 380.866 77.76C379.906 76.24 378.946 74.4 377.986 72.24L353.746 18.48C353.506 17.84 352.986 17.52 352.186 17.52H351.106C350.466 17.52 350.146 17.92 350.146 18.72V81.36C350.146 83.12 349.266 84 347.506 84H335.266C333.426 84 332.506 83.12 332.506 81.36V12.48C332.506 7.91999 333.226 4.71999 334.666 2.87999C336.106 0.959994 338.946 -5.72205e-06 343.186 -5.72205e-06H356.266ZM491.546 -5.72205e-06C493.306 -5.72205e-06 494.186 0.879995 494.186 2.64V81.36C494.186 83.12 493.306 84 491.546 84H478.586C476.746 84 475.826 83.12 475.826 81.36V2.64C475.826 0.879995 476.746 -5.72205e-06 478.586 -5.72205e-06H491.546ZM531.522 -5.72205e-06C533.442 -5.72205e-06 535.042 0.0799956 536.322 0.239998C537.602 0.399996 538.722 0.759996 539.682 1.32C540.642 1.8 541.562 2.52 542.442 3.48C543.322 4.36 544.322 5.56 545.442 7.08L590.082 65.64C590.402 66.2 590.922 66.48 591.642 66.48H592.722C593.362 66.48 593.682 66.08 593.682 65.28V2.64C593.682 0.879995 594.562 -5.72205e-06 596.322 -5.72205e-06H608.922C610.682 -5.72205e-06 611.562 0.879995 611.562 2.64V71.52C611.562 76.4 610.682 79.72 608.922 81.48C607.162 83.16 604.442 84 600.762 84H590.442C588.602 84 587.042 83.92 585.762 83.76C584.562 83.6 583.482 83.28 582.522 82.8C581.562 82.32 580.602 81.64 579.642 80.76C578.762 79.8 577.722 78.52 576.522 76.92L531.762 18.36C531.282 17.8 530.762 17.52 530.202 17.52H529.122C528.482 17.52 528.162 17.92 528.162 18.72V81.36C528.162 83.12 527.282 84 525.522 84H512.922C511.082 84 510.162 83.12 510.162 81.36V12.48C510.162 7.6 511.042 4.32 512.802 2.64C514.562 0.879995 517.282 -5.72205e-06 520.962 -5.72205e-06H531.522ZM687.227 -5.72205e-06C693.707 -5.72205e-06 699.267 0.679995 703.907 2.04C708.547 3.31999 712.347 5.35999 715.307 8.16C718.267 10.88 720.427 14.4 721.787 18.72C723.227 22.96 723.947 28 723.947 33.84V50.16C723.947 56 723.227 61.08 721.787 65.4C720.427 69.64 718.267 73.16 715.307 75.96C712.347 78.68 708.547 80.72 703.907 82.08C699.267 83.36 693.707 84 687.227 84H631.067C628.667 84 627.467 82.8 627.467 80.4V3.6C627.467 1.2 628.667 -5.72205e-06 631.067 -5.72205e-06H687.227ZM645.827 65.76C645.827 66.8 646.347 67.32 647.387 67.32H686.747C690.267 67.32 693.227 67 695.627 66.36C698.027 65.72 699.947 64.68 701.387 63.24C702.907 61.8 703.987 59.88 704.627 57.48C705.267 55.08 705.587 52.12 705.587 48.6V35.4C705.587 31.88 705.267 28.92 704.627 26.52C703.987 24.12 702.907 22.2 701.387 20.76C699.947 19.32 698.027 18.28 695.627 17.64C693.227 17 690.267 16.68 686.747 16.68H647.387C646.347 16.68 645.827 17.24 645.827 18.36V65.76Z" fill="#424874"/>
</svg>
