<svg width="29" height="22" viewBox="0 0 29 22" fill="none" xmlns="http://www.w3.org/2000/svg">
<path d="M4.73129 0.0371094C3.47648 0.0371094 2.27305 0.497237 1.38576 1.31627C0.498474 2.1353 0 3.24615 0 4.40444V4.84336L14.1939 11.8988L28.3878 4.84554V4.40444C28.3878 3.24615 27.8893 2.1353 27.002 1.31627C26.1147 0.497237 24.9113 0.0371094 23.6565 0.0371094H4.73129Z" fill="#424874"/>
<path d="M28.3878 7.32422L14.7545 14.1001C14.5822 14.1858 14.3896 14.2306 14.1939 14.2306C13.9982 14.2306 13.8055 14.1858 13.6332 14.1001L0 7.32422V17.5066C0 18.6649 0.498474 19.7758 1.38576 20.5948C2.27305 21.4139 3.47648 21.874 4.73129 21.874H23.6565C24.9113 21.874 26.1147 21.4139 27.002 20.5948C27.8893 19.7758 28.3878 18.6649 28.3878 17.5066V7.32422Z" fill="#424874"/>
</svg>
