<svg width="125" height="125" viewBox="0 0 125 125" fill="none" xmlns="http://www.w3.org/2000/svg">
<rect width="125" height="125" rx="40" fill="#DCD6F7"/>
<path d="M34.5094 30.2627C30.8061 30.2627 27.2544 31.6207 24.6357 34.0379C22.0171 36.4551 20.5459 39.7336 20.5459 43.1521V44.4474L62.4365 65.2702L104.327 44.4539V43.1521C104.327 39.7336 102.856 36.4551 100.237 34.0379C97.6185 31.6207 94.0669 30.2627 90.3635 30.2627H34.5094Z" fill="#747DAB"/>
<path d="M104.327 51.7686L64.0911 71.7664C63.5826 72.0191 63.014 72.1514 62.4365 72.1514C61.8589 72.1514 61.2904 72.0191 60.7818 71.7664L20.5459 51.7686V81.8201C20.5459 85.2386 22.0171 88.517 24.6357 90.9342C27.2544 93.3515 30.8061 94.7094 34.5094 94.7094H90.3635C94.0669 94.7094 97.6185 93.3515 100.237 90.9342C102.856 88.517 104.327 85.2386 104.327 81.8201V51.7686Z" fill="#747DAB"/>
</svg>
