<svg width="125" height="125" viewBox="0 0 125 125" fill="none" xmlns="http://www.w3.org/2000/svg">
<rect width="125" height="125" rx="40" fill="#DCD6F7"/>
<path d="M62.4899 52.4067C55.8457 52.4067 50.4236 57.829 50.4236 64.4733C50.4236 71.1176 55.8457 76.5398 62.4899 76.5398C69.1341 76.5398 74.5562 71.1176 74.5562 64.4733C74.5562 57.829 69.1341 52.4067 62.4899 52.4067ZM98.6798 64.4733C98.6798 59.4765 98.7251 54.5249 98.4445 49.5372C98.1638 43.7438 96.8423 38.6022 92.6059 34.3658C88.3605 30.1203 83.228 28.8077 77.4348 28.5271C72.4381 28.2465 67.4866 28.2918 62.499 28.2918C57.5023 28.2918 52.5508 28.2465 47.5632 28.5271C41.7699 28.8077 36.6284 30.1293 32.392 34.3658C28.1466 38.6112 26.8341 43.7438 26.5535 49.5372C26.2729 54.534 26.3181 59.4855 26.3181 64.4733C26.3181 69.461 26.2729 74.4216 26.5535 79.4094C26.8341 85.2027 28.1557 90.3444 32.392 94.5808C36.6374 98.8263 41.7699 100.139 47.5632 100.419C52.5599 100.7 57.5113 100.655 62.499 100.655C67.4957 100.655 72.4471 100.7 77.4348 100.419C83.228 100.139 88.3696 98.8172 92.6059 94.5808C96.8513 90.3353 98.1638 85.2027 98.4445 79.4094C98.7341 74.4216 98.6798 69.4701 98.6798 64.4733ZM62.4899 83.0393C52.2159 83.0393 43.9243 74.7475 43.9243 64.4733C43.9243 54.1991 52.2159 45.9073 62.4899 45.9073C72.7639 45.9073 81.0556 54.1991 81.0556 64.4733C81.0556 74.7475 72.7639 83.0393 62.4899 83.0393ZM81.8159 49.4829C79.4172 49.4829 77.48 47.5457 77.48 45.1469C77.48 42.7481 79.4172 40.8109 81.8159 40.8109C84.2147 40.8109 86.1518 42.7481 86.1518 45.1469C86.1526 45.7165 86.0409 46.2807 85.8232 46.8071C85.6056 47.3334 85.2862 47.8117 84.8835 48.2145C84.4807 48.6173 84.0024 48.9366 83.4761 49.1543C82.9497 49.3719 82.3855 49.4836 81.8159 49.4829Z" fill="#747DAB"/>
</svg>
