<svg width="125" height="125" viewBox="0 0 125 125" fill="none" xmlns="http://www.w3.org/2000/svg">
<rect width="125" height="125" rx="40" fill="#DCD6F7"/>
<path fill-rule="evenodd" clip-rule="evenodd" d="M33.3347 33.1446C34.1693 32.3831 35.1714 31.7923 36.2747 31.4115C37.378 31.0307 38.5572 30.8685 39.7343 30.9357C40.9113 31.0029 42.0593 31.2979 43.1022 31.8012C44.145 32.3045 45.0589 33.0046 45.7833 33.8551L54.3447 43.9064C55.9139 45.7501 56.4672 48.1518 55.8472 50.4183L53.2382 59.964C53.1033 60.4584 53.1106 60.9763 53.2594 61.4674C53.4081 61.9585 53.6933 62.406 54.0872 62.7667L65.8061 73.4761C66.2012 73.8368 66.6917 74.0979 67.23 74.2338C67.7683 74.3698 68.336 74.3761 68.8777 74.252L79.3183 71.8678C80.5422 71.5881 81.8197 71.5664 83.0542 71.8042C84.2887 72.0421 85.4479 72.5333 86.4441 73.2408L97.4427 81.0604C101.397 83.8718 101.759 89.2112 98.2202 92.4411L93.2884 96.948C89.7589 100.174 84.4838 101.59 79.5663 100.008C66.9803 95.9609 55.5527 89.3762 46.1315 80.7422C36.6843 72.1337 29.479 61.6921 25.0499 50.1917C23.3234 45.7022 24.8735 40.877 28.403 37.6516L33.3347 33.1446Z" fill="#747DAB"/>
</svg>
