<svg width="36" height="37" viewBox="0 0 36 37" fill="none" xmlns="http://www.w3.org/2000/svg">
<path d="M34.1133 0.898494L35.1007 1.88583C36.4612 3.24802 36.2554 5.66281 34.6371 7.27937L14.2762 27.6403L7.67947 30.0534C6.85111 30.358 6.04451 29.963 5.88051 29.1748C5.82509 28.8889 5.85118 28.5932 5.95582 28.3214L8.41579 21.6677L28.7198 1.36204C30.338 -0.254515 32.7528 -0.462023 34.1133 0.900167V0.898494ZM13.3876 2.92337C13.6074 2.92337 13.825 2.96666 14.028 3.05075C14.2311 3.13485 14.4155 3.25812 14.5709 3.41351C14.7263 3.56891 14.8496 3.75339 14.9337 3.95642C15.0178 4.15945 15.0611 4.37706 15.0611 4.59682C15.0611 4.81658 15.0178 5.03419 14.9337 5.23723C14.8496 5.44026 14.7263 5.62474 14.5709 5.78013C14.4155 5.93553 14.2311 6.05879 14.028 6.14289C13.825 6.22699 13.6074 6.27028 13.3876 6.27028H6.69381C5.80616 6.27028 4.95486 6.6229 4.32719 7.25056C3.69952 7.87823 3.34691 8.72953 3.34691 9.61718V29.6986C3.34691 30.5863 3.69952 31.4376 4.32719 32.0652C4.95486 32.6929 5.80616 33.0455 6.69381 33.0455H26.7752C27.6629 33.0455 28.5142 32.6929 29.1419 32.0652C29.7695 31.4376 30.1221 30.5863 30.1221 29.6986V23.0048C30.1221 22.561 30.2985 22.1353 30.6123 21.8215C30.9261 21.5077 31.3518 21.3313 31.7956 21.3313C32.2394 21.3313 32.6651 21.5077 32.9789 21.8215C33.2927 22.1353 33.4691 22.561 33.4691 23.0048V29.6986C33.4691 31.4739 32.7638 33.1765 31.5085 34.4318C30.2531 35.6872 28.5505 36.3924 26.7752 36.3924H6.69381C4.9185 36.3924 3.2159 35.6872 1.96057 34.4318C0.705239 33.1765 0 31.4739 0 29.6986V9.61718C0 7.84187 0.705239 6.13928 1.96057 4.88394C3.2159 3.62861 4.9185 2.92337 6.69381 2.92337H13.3876Z" fill="#424874"/>
</svg>
