<svg width="125" height="125" viewBox="0 0 125 125" fill="none" xmlns="http://www.w3.org/2000/svg">
<rect width="125" height="125" rx="40" fill="#DCD6F7"/>
<path d="M100 41.8916C97.339 43.0785 94.48 43.8804 91.4745 44.2429C94.5757 42.3753 96.8958 39.436 98.0019 35.9733C95.0883 37.7151 91.8995 38.9411 88.5742 39.5981C86.338 37.195 83.3761 35.6022 80.1483 35.067C76.9205 34.5318 73.6074 35.0841 70.7235 36.6381C67.8395 38.1921 65.546 40.661 64.199 43.6613C62.852 46.6617 62.5269 50.0257 63.2742 53.231C57.3705 52.9327 51.5952 51.3883 46.3229 48.6982C41.0506 46.008 36.3993 42.2322 32.6708 37.6157C31.3959 39.829 30.6629 42.3952 30.6629 45.1282C30.6614 47.5886 31.2634 50.0112 32.4154 52.1812C33.5674 54.3513 35.2338 56.2016 37.2667 57.5679C34.9091 57.4924 32.6035 56.8513 30.5417 55.6978V55.8903C30.5415 59.341 31.7275 62.6855 33.8984 65.3564C36.0694 68.0272 39.0916 69.8598 42.4523 70.5433C40.2652 71.1391 37.9722 71.2268 35.7464 70.7999C36.6946 73.7691 38.5416 76.3655 41.0288 78.2257C43.516 80.0859 46.5189 81.1167 49.6171 81.1738C44.3577 85.3292 37.8624 87.5832 31.176 87.5733C29.9916 87.5736 28.8082 87.504 27.6318 87.3648C34.4189 91.7568 42.3195 94.0877 50.3884 94.0787C77.7027 94.0787 92.6347 71.31 92.6347 51.563C92.6347 50.9215 92.6187 50.2735 92.59 49.6319C95.4945 47.5179 98.0016 44.9002 99.9939 41.9012L100 41.8916Z" fill="#747DAB"/>
</svg>
