<svg width="30" height="30" viewBox="0 0 30 30" fill="none" xmlns="http://www.w3.org/2000/svg">
<path d="M1.39829 0.691108L29.0373 14.3099C29.188 14.3842 29.3149 14.4992 29.4037 14.6418C29.4924 14.7845 29.5395 14.9492 29.5395 15.1172C29.5395 15.2852 29.4924 15.4499 29.4037 15.5926C29.3149 15.7353 29.188 15.8502 29.0373 15.9245L1.39649 29.5433C1.24164 29.6194 1.06819 29.6493 0.896793 29.6296C0.725398 29.6099 0.563282 29.5413 0.429754 29.4321C0.296226 29.3228 0.196913 29.1775 0.143643 29.0134C0.0903733 28.8493 0.0853916 28.6734 0.129291 28.5065L2.86709 18.1655C2.91147 17.9982 3.00317 17.8472 3.1312 17.7307C3.25922 17.6141 3.41813 17.537 3.58889 17.5085L15.9747 15.4439C16.0485 15.4317 16.1181 15.4013 16.1772 15.3554C16.2363 15.3095 16.283 15.2496 16.3131 15.1811L16.3455 15.0731C16.3623 14.973 16.3448 14.8702 16.2958 14.7813C16.2467 14.6924 16.1691 14.6227 16.0755 14.5835L15.9747 14.5547L3.52049 12.4793C3.35006 12.4505 3.19153 12.3732 3.06385 12.2567C2.93617 12.1402 2.84474 11.9894 2.80049 11.8223L0.129291 1.72971C0.084935 1.56274 0.089572 1.38653 0.142649 1.22213C0.195726 1.05772 0.294999 0.912069 0.428615 0.802557C0.562231 0.693045 0.724543 0.624304 0.896169 0.604541C1.06779 0.584779 1.24148 0.614831 1.39649 0.691108H1.39829Z" fill="#424874"/>
</svg>
