<svg width="20" height="20" viewBox="0 0 20 20" fill="none" xmlns="http://www.w3.org/2000/svg">
<path d="M17.5 1H2.5C2.10218 1 1.72064 1.15804 1.43934 1.43934C1.15804 1.72064 1 2.10218 1 2.5V17.5C1 17.8978 1.15804 18.2794 1.43934 18.5607C1.72064 18.842 2.10218 19 2.5 19H17.5C17.8978 19 18.2794 18.842 18.5607 18.5607C18.842 18.2794 19 17.8978 19 17.5V2.5C19 2.10218 18.842 1.72064 18.5607 1.43934C18.2794 1.15804 17.8978 1 17.5 1Z" stroke="#5A5A5A" stroke-width="2" stroke-linecap="round" stroke-linejoin="round"/>
<path d="M7 9.5C7.66304 9.5 8.29893 9.23661 8.76777 8.76777C9.23661 8.29893 9.5 7.66304 9.5 7C9.5 6.33696 9.23661 5.70107 8.76777 5.23223C8.29893 4.76339 7.66304 4.5 7 4.5C6.33696 4.5 5.70107 4.76339 5.23223 5.23223C4.76339 5.70107 4.5 6.33696 4.5 7C4.5 7.66304 4.76339 8.29893 5.23223 8.76777C5.70107 9.23661 6.33696 9.5 7 9.5V9.5Z" stroke="#5A5A5A" stroke-width="2" stroke-linecap="round" stroke-linejoin="round"/>
<path d="M11.895 11.1098C11.9897 10.9829 12.1132 10.8804 12.2553 10.8105C12.3974 10.7407 12.5541 10.7056 12.7124 10.7081C12.8707 10.7107 13.0262 10.7508 13.166 10.8251C13.3058 10.8995 13.4259 11.006 13.5165 11.1358L17.904 17.4278C18.366 18.0908 17.8915 18.9998 17.084 18.9998H6L11.895 11.1098V11.1098Z" stroke="#5A5A5A" stroke-width="2" stroke-linecap="round" stroke-linejoin="round"/>
</svg>
