<svg width="125" height="125" viewBox="0 0 125 125" fill="none" xmlns="http://www.w3.org/2000/svg">
<rect width="125" height="125" rx="40" fill="#DCD6F7"/>
<path d="M22.4534 70.4388C23.3414 91.9613 40.9365 109.21 62.4997 109.21C84.0629 109.21 101.658 91.9613 102.546 70.4388C102.599 70.3033 102.628 70.1595 102.631 70.014C102.631 69.9229 102.599 69.8446 102.581 69.7611C102.589 69.4222 102.631 69.091 102.631 68.7496C102.631 46.4407 84.6273 28.2891 62.4997 28.2891C40.3722 28.2891 22.3682 46.4407 22.3682 68.7496C22.3682 69.091 22.4108 69.4222 22.4183 69.7611C22.4008 69.8446 22.3682 69.9229 22.3682 70.014C22.3682 70.1657 22.4058 70.3048 22.4534 70.4388ZM84.8756 85.7986C81.4675 84.3723 77.9255 83.2955 74.3034 82.5846C74.6997 78.9102 74.933 75.0943 75.0057 71.2809H87.4967C87.2685 76.475 86.353 81.3783 84.8756 85.7986ZM90.0024 71.2784H99.9952C99.553 78.1634 97.2424 84.7934 93.3158 90.444C91.3652 89.0601 89.3038 87.8421 87.1531 86.8026C88.7709 82.0763 89.7666 76.8316 90.0024 71.2784ZM53.4425 84.6455C56.4386 84.169 59.4667 83.9272 62.4997 83.9223C65.5698 83.9223 68.6023 84.1802 71.5544 84.6455C69.8137 98.1366 66.0113 106.681 62.4997 106.681C58.9882 106.681 55.1858 98.1366 53.4425 84.6455ZM57.2525 105.832C50.3524 103.601 44.5158 97.0543 40.9942 88.1706C44.2199 86.8105 47.5725 85.7795 51.002 85.0931C52.1533 93.9337 54.2577 101.636 57.2525 105.832ZM53.1541 55.3698C56.2461 55.8553 59.3705 56.1013 62.4997 56.1057C65.629 56.1013 68.7534 55.8553 71.8454 55.3698C72.2768 59.4664 72.5326 63.9373 72.5326 68.7496H52.4669C52.4669 63.9373 52.7227 59.4664 53.1541 55.3698ZM72.495 71.2784C72.4351 74.9032 72.2175 78.5237 71.8429 82.1294C68.7517 81.6437 65.6282 81.3976 62.4997 81.3935C59.3705 81.3977 56.2461 81.6438 53.1541 82.1294C52.7783 78.5238 52.5607 74.9033 52.502 71.2784H72.495ZM73.9999 85.0931C77.5215 85.8062 80.88 86.843 84.0078 88.1706C80.4862 97.0543 74.6496 103.601 67.7495 105.832C70.7418 101.636 72.8462 93.9337 73.9999 85.0931ZM75.0409 68.7496C75.0409 64.1067 74.785 59.4032 74.3034 54.9171C78.0156 54.1787 81.5673 53.0964 84.8756 51.7031C86.5912 56.834 87.582 62.6148 87.582 68.7496H75.0409ZM73.9999 52.4061C72.8462 43.5654 70.7443 35.8602 67.7469 31.6675C74.6471 33.8979 80.4837 40.4449 84.0053 49.3285C80.7809 50.6899 77.4289 51.7209 73.9999 52.4061ZM71.5569 52.8537C68.6023 53.319 65.5698 53.5769 62.4997 53.5769C59.4297 53.5769 56.3972 53.319 53.4425 52.8537C55.1858 39.3626 58.9882 30.8178 62.4997 30.8178C66.0113 30.8178 69.8137 39.3626 71.5569 52.8537ZM50.9995 52.4061C47.5701 51.7194 44.2175 50.6884 40.9917 49.3285C44.5133 40.4449 50.3499 33.8979 57.25 31.6675C54.2577 35.8628 52.1533 43.5654 50.9995 52.4061ZM50.696 54.9171C50.2061 59.5114 49.96 64.1288 49.9586 68.7496H37.4175C37.4175 62.6148 38.4083 56.834 40.1239 51.7005C43.4322 53.0964 46.9839 54.1762 50.696 54.9171ZM49.9937 71.2784C50.0665 75.0918 50.2997 78.9077 50.696 82.5846C46.9839 83.323 43.4322 84.4053 40.1239 85.7986C38.6465 81.3783 37.731 76.475 37.5028 71.2784H49.9937ZM37.8439 86.8026C35.6944 87.8431 33.634 89.061 31.6837 90.444C27.7568 84.7935 25.4461 78.1634 25.0043 71.2784H34.9971C35.2328 76.8316 36.2286 82.0763 37.8439 86.8026ZM33.1861 92.4696C34.9416 91.2232 36.7926 90.1197 38.7218 89.1695C41.24 95.4535 44.8644 100.67 49.2212 104.198C42.9358 101.798 37.4002 97.7486 33.1861 92.4696ZM75.7783 104.196C80.1376 100.67 83.7594 95.451 86.2777 89.167C88.2592 90.138 90.0952 91.2558 91.8134 92.467C87.6007 97.7476 82.0646 101.797 75.7783 104.196ZM90.0902 68.7496C90.0902 62.2582 89.0167 56.1385 87.1556 50.6966C89.3628 49.6295 91.4146 48.403 93.3183 47.0552C97.7483 53.4076 100.125 60.9842 100.123 68.7496H90.0902ZM91.8159 45.0296C90.0977 46.2409 88.2617 47.3586 86.2802 48.3297C83.762 42.0456 80.1376 36.8262 75.7808 33.3011C82.0655 35.703 87.6008 39.7517 91.8159 45.0296ZM49.2212 33.3036C44.8619 36.8288 41.24 42.0482 38.7218 48.3322C36.7928 47.3808 34.9417 46.2765 33.1861 45.0296C37.3997 39.7506 42.9356 35.7024 49.2212 33.3036ZM31.6837 47.0552C33.6337 48.4387 35.6941 49.6567 37.8439 50.6966C35.8823 56.5093 34.8906 62.6097 34.9093 68.7496H24.8764C24.8764 60.6828 27.4072 53.2102 31.6837 47.0552Z" fill="#747DAB"/>
</svg>
