<svg width="26" height="26" viewBox="0 0 26 26" fill="none" xmlns="http://www.w3.org/2000/svg">
<path d="M12.5593 0H12.553C5.62985 0 0 5.63142 0 12.5561C0 15.3028 0.885207 17.8485 2.39037 19.9156L0.825565 24.5802L5.65182 23.0373C7.63726 24.3526 10.0057 25.1122 12.5593 25.1122C19.4824 25.1122 25.1122 19.4793 25.1122 12.5561C25.1122 5.63299 19.4824 0 12.5593 0ZM19.8654 17.7308C19.5624 18.5862 18.3602 19.2956 17.4012 19.5028C16.7452 19.6425 15.8882 19.7539 13.0034 18.5579C9.3135 17.0292 6.93726 13.2797 6.75205 13.0364C6.5747 12.7931 5.26101 11.051 5.26101 9.24915C5.26101 7.44735 6.17604 6.56999 6.54488 6.19331C6.8478 5.88411 7.34847 5.74286 7.82874 5.74286C7.98412 5.74286 8.12381 5.7507 8.24937 5.75698C8.61821 5.77268 8.80341 5.79465 9.04669 6.37694C9.3496 7.10677 10.0873 8.90857 10.1752 9.09377C10.2646 9.27897 10.3541 9.5301 10.2285 9.77337C10.1108 10.0245 10.0072 10.1359 9.82203 10.3494C9.63682 10.5628 9.46104 10.7261 9.27584 10.9552C9.10633 11.1545 8.91485 11.368 9.1283 11.7368C9.34175 12.0978 10.0794 13.3016 11.1655 14.2685C12.5671 15.5162 13.7034 15.9149 14.1099 16.0844C14.4129 16.21 14.7738 16.1801 14.9951 15.9447C15.2761 15.6418 15.623 15.1395 15.9761 14.6451C16.2272 14.2904 16.5443 14.2465 16.877 14.3721C17.216 14.4898 19.01 15.3765 19.3788 15.5602C19.7476 15.7454 19.9909 15.8333 20.0804 15.9887C20.1683 16.144 20.1683 16.8739 19.8654 17.7308Z" fill="#424874"/>
</svg>
