<svg width="125" height="125" viewBox="0 0 125 125" fill="none" xmlns="http://www.w3.org/2000/svg">
<rect width="125" height="125" rx="40" fill="#DCD6F7"/>
<path d="M62.1803 28.2891H62.1618C41.6666 28.2891 25 45.1078 25 65.7891C25 73.9922 27.6206 81.5953 32.0764 87.7687L27.444 101.7L41.7316 97.0922C47.6093 101.02 54.6207 103.289 62.1803 103.289C82.6755 103.289 99.3421 86.4656 99.3421 65.7891C99.3421 45.1125 82.6755 28.2891 62.1803 28.2891ZM83.8092 81.2438C82.9125 83.7984 79.3534 85.9172 76.5144 86.5359C74.5722 86.9531 72.0353 87.2859 63.4953 83.7141C52.5716 79.1484 45.537 67.95 44.9887 67.2234C44.4637 66.4969 40.5747 61.2938 40.5747 55.9125C40.5747 50.5312 43.2835 47.9109 44.3754 46.7859C45.2722 45.8625 46.7544 45.4406 48.1761 45.4406C48.6361 45.4406 49.0497 45.4641 49.4214 45.4828C50.5133 45.5297 51.0616 45.5953 51.7817 47.3344C52.6785 49.5141 54.8623 54.8953 55.1225 55.4484C55.3873 56.0016 55.6522 56.7516 55.2805 57.4781C54.932 58.2281 54.6253 58.5609 54.0771 59.1984C53.5288 59.8359 53.0084 60.3234 52.4601 61.0078C51.9583 61.6031 51.3914 62.2406 52.0234 63.3422C52.6553 64.4203 54.8391 68.0156 58.0544 70.9031C62.2036 74.6297 65.5676 75.8203 66.771 76.3266C67.6677 76.7016 68.7364 76.6125 69.3915 75.9094C70.2232 75.0047 71.2501 73.5047 72.2955 72.0281C73.0389 70.9688 73.9775 70.8375 74.9625 71.2125C75.9662 71.5641 81.277 74.2125 82.3689 74.7609C83.4608 75.3141 84.181 75.5766 84.4458 76.0406C84.706 76.5047 84.706 78.6844 83.8092 81.2438Z" fill="#747DAB"/>
</svg>
